<?xml version="1.0" encoding="UTF-8" standalone="no"?>
<!-- Created with Inkscape (http://www.inkscape.org/) -->

<svg
   xmlns:dc="http://purl.org/dc/elements/1.1/"
   xmlns:cc="http://creativecommons.org/ns#"
   xmlns:rdf="http://www.w3.org/1999/02/22-rdf-syntax-ns#"
   xmlns:svg="http://www.w3.org/2000/svg"
   xmlns="http://www.w3.org/2000/svg"
   xmlns:sodipodi="http://sodipodi.sourceforge.net/DTD/sodipodi-0.dtd"
   xmlns:inkscape="http://www.inkscape.org/namespaces/inkscape"
   width="114"
   height="48"
   viewBox="0 0 30.162499 12.7"
   version="1.1"
   id="svg920"
   inkscape:version="0.92.4 (unknown)"
   sodipodi:docname="logo.svg">
  <defs
     id="defs914" />
  <sodipodi:namedview
     id="base"
     pagecolor="#ffffff"
     bordercolor="#666666"
     borderopacity="1.0"
     inkscape:pageopacity="0.0"
     inkscape:pageshadow="2"
     inkscape:zoom="3.475263"
     inkscape:cx="42.414156"
     inkscape:cy="22.884916"
     inkscape:document-units="mm"
     inkscape:current-layer="g96"
     showgrid="false"
     units="px"
     showguides="false"
     inkscape:window-width="1366"
     inkscape:window-height="704"
     inkscape:window-x="0"
     inkscape:window-y="27"
     inkscape:window-maximized="1">
    <sodipodi:guide
       position="-370.41665,306.91668"
       orientation="-0.70710678,0.70710678"
       id="guide1578"
       inkscape:locked="false" />
  </sodipodi:namedview>
  <metadata
     id="metadata917">
    <rdf:RDF>
      <cc:Work
         rdf:about="">
        <dc:format>image/svg+xml</dc:format>
        <dc:type
           rdf:resource="http://purl.org/dc/dcmitype/StillImage" />
        <dc:title></dc:title>
      </cc:Work>
    </rdf:RDF>
  </metadata>
  <g
     inkscape:label="Camada 1"
     inkscape:groupmode="layer"
     id="layer1"
     transform="translate(0,-284.29998)">
    <g
       transform="matrix(0.26458333,0,0,0.26458333,-346.36126,-140.9454)"
       id="g96">
      <g
         id="g1576"
         transform="matrix(0.08399953,0,0,0.08381065,1279.8795,1544.7031)">
        <path
           style="fill:#ffffff"
           id="path52"
           d="m 676.39,1167.98 c 1.32,-2.65 2.7,-5.63 4.13,-8.94 1.43,-3.31 2.75,-6.9 3.97,-10.77 l 4.13,-10.08 c -1.83,-2.75 -3.69,-5.73 -5.58,-8.94 -1.89,-3.21 -3.59,-6.49 -5.12,-9.85 -1.53,-3.36 -2.78,-6.72 -3.74,-10.08 -0.97,-3.36 -1.45,-6.62 -1.45,-9.78 0,-0.2 0.79,-0.38 2.37,-0.54 1.58,-0.15 3.56,-0.28 5.96,-0.38 2.39,-0.1 4.99,-0.18 7.79,-0.23 2.8,-0.05 5.4,-0.1 7.79,-0.15 2.39,-0.05 5.17,-0.13 8.33,-0.23 2.34,-6.11 4.63,-11.92 6.88,-17.42 2.24,-5.5 4.48,-11.05 6.72,-16.65 2.24,-5.6 4.48,-11.33 6.72,-17.19 2.24,-5.86 4.48,-12.15 6.72,-18.87 4.28,-12.63 8.45,-23.73 12.53,-33.3 4.07,-9.57 7.89,-18.49 11.46,-26.73 0.41,-1.02 1.09,-1.96 2.06,-2.83 0.97,-0.86 2.01,-1.6 3.13,-2.22 1.12,-0.61 2.22,-1.12 3.29,-1.53 1.07,-0.41 1.91,-0.71 2.52,-0.92 0.41,-0.1 1.96,-0.56 4.66,-1.38 2.7,-0.81 5.78,-1.68 9.24,-2.6 3.46,-0.92 6.9,-1.73 10.31,-2.44 3.41,-0.71 6.13,-1.07 8.17,-1.07 h 2.75 c 1.63,0 3.18,0.38 4.66,1.15 1.47,0.76 2.47,2.27 2.98,4.51 4.89,12.53 10.11,26.2 15.66,41.02 5.55,14.82 10.97,31.14 16.27,48.96 2.85,9.57 5.65,18.64 8.4,27.19 2.75,8.55 5.5,16.91 8.25,25.05 2.75,8.15 5.52,16.3 8.33,24.44 2.8,8.15 5.68,16.55 8.63,25.21 0.92,3.67 1.86,6.57 2.83,8.71 0.97,2.14 1.86,3.82 2.67,5.04 0.81,1.22 1.47,2.12 1.99,2.67 0.51,0.56 0.76,1.15 0.76,1.76 0,0.61 -0.97,1.22 -2.9,1.83 l -32.85,10.69 c -2.44,0.92 -4.94,1.83 -7.49,2.75 -2.55,0.92 -4.94,1.73 -7.18,2.44 -2.24,0.71 -4.2,1.3 -5.88,1.76 -1.68,0.46 -2.88,0.69 -3.59,0.69 h -0.92 c -1.43,0 -2.44,-0.43 -3.05,-1.3 -0.61,-0.87 -1.02,-1.71 -1.22,-2.52 -1.02,-3.36 -2.04,-6.39 -3.05,-9.09 -1.02,-2.7 -2.01,-5.4 -2.98,-8.1 -0.97,-2.7 -1.94,-5.58 -2.9,-8.63 -0.97,-3.06 -1.91,-6.67 -2.83,-10.85 -0.21,-0.51 -0.76,-0.94 -1.68,-1.3 -0.92,-0.36 -2.01,-0.63 -3.29,-0.84 -1.27,-0.2 -2.62,-0.33 -4.05,-0.38 -1.43,-0.05 -2.75,-0.08 -3.97,-0.08 -3.87,0 -7,0.03 -9.4,0.08 -2.39,0.05 -4.51,0.1 -6.34,0.15 -1.83,0.05 -3.59,0.1 -5.27,0.15 -1.68,0.05 -3.74,0.08 -6.19,0.08 -2.96,0 -5.98,-0.02 -9.09,-0.08 -3.11,-0.05 -5.93,-0.13 -8.48,-0.23 l -8.71,-0.31 c -2.65,7.33 -5.3,14.21 -7.94,20.62 -2.65,6.42 -5.5,13.04 -8.55,19.86 -0.21,0.81 -0.69,1.47 -1.45,1.99 -0.76,0.51 -1.55,0.76 -2.37,0.76 -0.61,0 -0.97,-0.05 -1.07,-0.15 -9.88,-3.57 -18.18,-7.08 -24.9,-10.54 -6.72,-3.46 -12.59,-6.78 -17.58,-10.04 z m 102.97,-137.34 c -2.44,9.07 -4.86,17.29 -7.26,24.67 -2.39,7.39 -4.58,13.93 -6.57,19.63 -1.99,5.71 -3.69,10.52 -5.12,14.44 -1.43,3.92 -2.44,6.95 -3.06,9.09 v 1.38 c 0,0.61 -0.05,1.02 -0.15,1.22 h 36.67 c -1.12,-4.99 -2.32,-10.03 -3.59,-15.12 -1.28,-5.09 -2.52,-10.44 -3.74,-16.04 -1.22,-5.6 -2.44,-11.61 -3.67,-18.03 -1.22,-6.42 -2.39,-13.5 -3.51,-21.24 z"
           class="st4"
           inkscape:connector-curvature="0"
           transform="translate(2.7559056e-5,3.6220474e-6)" />
        <path
           style="fill:#ffffff"
           id="path54"
           d="m 1012.07,1068.02 c -0.07,6.13 -0.66,11.62 -1.76,16.47 -1.11,4.85 -2.67,9.21 -4.71,13.1 -2.03,3.89 -4.49,7.38 -7.38,10.48 -2.89,3.1 -6.19,6.01 -9.89,8.72 -7.13,5.13 -14.94,9 -23.42,11.6 -8.49,2.6 -17,3.9 -25.56,3.9 -1.43,0 -2.83,-0.04 -4.22,-0.11 -1.39,-0.07 -2.8,-0.18 -4.22,-0.32 l -3.53,39.03 -1.82,3.32 c -0.14,0.29 -1.36,0.86 -3.64,1.71 -2.28,0.86 -5.13,1.85 -8.56,2.99 l -6.74,2.25 c -2.14,0.78 -4.03,1.5 -5.67,2.14 -1.64,0.64 -3.17,1.21 -4.6,1.71 -1.43,0.5 -2.82,0.87 -4.17,1.12 -1.36,0.25 -2.78,0.37 -4.28,0.37 -1,0 -1.78,-0.25 -2.35,-0.75 -0.57,-0.5 -0.86,-1.46 -0.86,-2.89 l 1.18,-18.29 c 0.21,-3.64 0.48,-7.29 0.8,-10.96 0.32,-3.67 0.62,-7.86 0.91,-12.57 l 2.03,-25.56 c 0.43,-5.2 0.82,-10.41 1.18,-15.61 0.36,-5.2 0.71,-10.16 1.07,-14.87 0.36,-4.71 0.68,-9.11 0.96,-13.21 0.28,-4.1 0.53,-7.68 0.75,-10.75 -3.85,0.86 -6.93,1.48 -9.25,1.87 -2.32,0.39 -4.08,0.59 -5.29,0.59 -1.5,0 -2.25,-0.64 -2.25,-1.92 1,-3.49 1.92,-6.92 2.78,-10.27 0.78,-2.85 1.59,-5.79 2.41,-8.82 0.82,-3.03 1.51,-5.58 2.08,-7.65 0.36,-1.28 0.77,-2.26 1.23,-2.94 0.46,-0.68 1.07,-1.21 1.82,-1.6 0.75,-0.39 1.71,-0.75 2.89,-1.07 1.18,-0.32 2.62,-0.77 4.33,-1.34 1.35,-0.43 3.26,-0.91 5.72,-1.44 2.46,-0.54 5.28,-1.07 8.45,-1.6 3.17,-0.53 6.61,-1.05 10.32,-1.55 3.71,-0.5 7.47,-0.94 11.28,-1.34 3.81,-0.39 7.57,-0.71 11.28,-0.96 3.71,-0.25 7.2,-0.37 10.48,-0.37 8.13,0 15.83,0.75 23.1,2.25 7.27,1.5 13.65,4.05 19.14,7.65 5.49,3.6 9.86,8.45 13.1,14.54 3.26,6.11 4.88,13.75 4.88,22.95 z m -78.17,32.08 c 0,0.79 0.14,1.48 0.43,2.08 0.28,0.61 1.07,0.91 2.35,0.91 2,0 4.37,-0.44 7.11,-1.34 2.74,-0.89 5.49,-2.23 8.23,-4.01 2.74,-1.78 5.29,-3.99 7.65,-6.63 2.35,-2.64 4.13,-5.74 5.35,-9.3 0.5,-1.42 0.91,-3.24 1.23,-5.45 0.32,-2.21 0.48,-4.81 0.48,-7.81 0,-4.99 -1.73,-8.66 -5.19,-11.01 -3.46,-2.35 -7.97,-3.53 -13.53,-3.53 -0.93,0 -1.98,0.05 -3.15,0.16 -1.18,0.11 -2.28,0.3 -3.32,0.59 -1.03,0.29 -1.91,0.63 -2.62,1.02 -0.71,0.39 -1.11,0.91 -1.18,1.55 l -0.21,2.35 c -0.07,0.93 -0.21,2.44 -0.43,4.54 -0.21,2.1 -0.45,4.51 -0.69,7.22 -0.25,2.71 -0.5,5.56 -0.75,8.56 -0.25,2.99 -0.5,5.85 -0.75,8.55 -0.25,2.71 -0.46,5.1 -0.64,7.17 -0.17,2.07 -0.3,3.53 -0.37,4.38 z"
           class="st4"
           inkscape:connector-curvature="0"
           transform="translate(2.7559056e-5,3.6220474e-6)" />
        <path
           style="fill:#ffffff"
           id="path56"
           d="m 1075.66,1184.69 c -10.69,0 -20.25,-2 -28.66,-5.99 -8.41,-3.99 -15.52,-9.39 -21.33,-16.2 -5.81,-6.81 -10.27,-14.69 -13.37,-23.63 -3.1,-8.95 -4.65,-18.41 -4.65,-28.39 0,-11.19 1.59,-21.51 4.76,-30.96 3.17,-9.45 7.61,-17.82 13.31,-25.13 5.7,-7.31 12.49,-13.47 20.37,-18.5 7.88,-5.03 16.52,-8.75 25.93,-11.17 0.86,0 1.51,-0.68 1.98,-2.03 0.46,-1.35 0.87,-2.85 1.23,-4.49 0.36,-1.64 0.78,-3.14 1.28,-4.49 0.5,-1.35 1.21,-2.03 2.14,-2.03 13.83,1.43 26.27,3.87 37.32,7.33 11.05,3.46 20.42,8.4 28.13,14.81 7.7,6.42 13.6,14.53 17.7,24.33 4.1,9.8 6.15,21.76 6.15,35.88 0,9.05 -1.11,17.58 -3.32,25.56 -2.21,7.99 -5.31,15.35 -9.3,22.08 -3.99,6.74 -8.79,12.76 -14.38,18.07 -5.6,5.31 -11.82,9.82 -18.66,13.53 -6.84,3.71 -14.21,6.54 -22.08,8.5 -7.88,1.94 -16.07,2.92 -24.55,2.92 z m -20.85,-78.49 c 0,5.13 0.55,10.28 1.66,15.45 1.1,5.17 2.94,9.82 5.51,13.96 2.57,4.14 5.95,7.49 10.16,10.05 4.21,2.57 9.41,3.85 15.61,3.85 4.78,-0.28 8.96,-1.26 12.57,-2.94 3.6,-1.67 6.7,-3.85 9.3,-6.52 2.6,-2.67 4.76,-5.74 6.47,-9.2 1.71,-3.46 3.06,-7.09 4.06,-10.91 1,-3.81 1.69,-7.72 2.09,-11.71 0.39,-3.99 0.59,-7.84 0.59,-11.55 0,-5.06 -0.68,-9.96 -2.03,-14.7 -1.35,-4.74 -3.39,-8.93 -6.09,-12.57 -2.71,-3.64 -6.08,-6.56 -10.11,-8.77 -4.03,-2.21 -8.72,-3.32 -14.06,-3.32 -4.21,0 -8,0.79 -11.39,2.35 -3.39,1.57 -6.4,3.66 -9.04,6.26 -2.64,2.6 -4.9,5.6 -6.79,8.98 -1.89,3.39 -3.46,6.88 -4.71,10.48 -1.25,3.6 -2.18,7.2 -2.78,10.8 -0.61,3.61 -0.95,6.94 -1.02,10.01 z"
           class="st4"
           inkscape:connector-curvature="0"
           transform="translate(2.7559056e-5,3.6220474e-6)" />
        <path
           style="fill:#ffffff"
           id="path58"
           d="m 1261.59,1035.83 c 0.57,-2.35 1.07,-4.06 1.5,-5.13 0.43,-1.07 1.35,-1.78 2.78,-2.14 l 27.7,-6.52 c 0.86,-0.28 1.78,-0.43 2.78,-0.43 0.93,0 1.6,0.32 2.03,0.96 0.43,0.64 0.64,1.85 0.64,3.64 -0.43,1.71 -0.79,4.33 -1.07,7.86 -0.29,3.53 -0.5,7.4 -0.64,11.6 -0.14,4.21 -0.25,8.43 -0.32,12.67 -0.07,4.24 -0.11,7.93 -0.11,11.07 v 5.88 c 0,4.42 -0.04,9.23 -0.11,14.44 -0.07,5.21 -0.16,10.48 -0.27,15.83 -0.11,5.35 -0.23,10.62 -0.38,15.83 -0.14,5.2 -0.29,10.09 -0.43,14.65 l -0.64,18.29 c -0.07,0.36 -0.11,0.68 -0.11,0.96 0,0.29 0,0.57 0,0.86 v 1.6 c 0,1.21 0.02,2.23 0.05,3.05 0.04,0.82 0.05,1.55 0.05,2.19 0,0.71 -0.05,1.35 -0.16,1.92 -0.11,0.57 -0.37,1.12 -0.8,1.66 -0.43,0.54 -1.02,1.09 -1.76,1.66 -0.75,0.57 -1.76,1.28 -3.05,2.14 -0.71,0.5 -1.89,1.23 -3.53,2.19 -1.64,0.96 -3.46,2.05 -5.45,3.26 -2,1.21 -4.06,2.46 -6.2,3.74 -2.14,1.28 -4.1,2.44 -5.88,3.48 -1.78,1.03 -3.78,2.19 -5.99,3.48 l -49.62,-76.36 -4.49,62.56 c -0.07,0.57 -0.2,1.18 -0.38,1.82 -0.18,0.64 -0.66,1.14 -1.44,1.5 -0.64,0.29 -1.75,0.73 -3.32,1.34 -1.57,0.61 -3.41,1.3 -5.51,2.09 -2.1,0.78 -4.31,1.58 -6.63,2.41 -2.32,0.82 -4.51,1.57 -6.58,2.25 -2.07,0.68 -3.9,1.23 -5.51,1.66 -1.6,0.43 -2.69,0.64 -3.26,0.64 -1.07,0 -1.96,-0.29 -2.67,-0.86 -0.71,-0.57 -1.07,-1.6 -1.07,-3.1 0.71,-8.91 1.53,-18.63 2.46,-29.14 0.93,-10.51 1.82,-21.3 2.67,-32.35 0.85,-11.05 1.66,-22.08 2.41,-33.1 0.75,-11.01 1.37,-21.48 1.87,-31.39 0,-0.28 -0.45,-1.23 -1.34,-2.83 -0.89,-1.6 -1.89,-3.35 -2.99,-5.24 -1.11,-1.89 -2.1,-3.67 -2.99,-5.35 -0.89,-1.67 -1.34,-2.73 -1.34,-3.15 0,-0.5 0.27,-0.96 0.8,-1.39 0.54,-0.43 1.41,-1 2.62,-1.71 l 28.55,-16.15 c 0.21,0 0.52,-0.04 0.91,-0.11 0.39,-0.07 0.73,-0.11 1.02,-0.11 0.78,0 1.41,0.09 1.87,0.27 0.46,0.18 0.94,0.73 1.44,1.66 l 51.87,93.57 v -80.12 z"
           class="st4"
           inkscape:connector-curvature="0"
           transform="translate(2.7559056e-5,3.6220474e-6)" />
        <path
           style="fill:#ffffff"
           id="path60"
           d="m 1330.41,1182.55 c 0.36,-5.2 0.71,-10.23 1.07,-15.08 0.36,-4.85 0.68,-9.55 0.96,-14.12 l 3.85,-50.48 c 0.43,-3.85 0.78,-7.36 1.07,-10.53 0.28,-3.17 0.52,-6.27 0.7,-9.3 0.18,-3.03 0.36,-6.1 0.53,-9.2 0.18,-3.1 0.38,-6.54 0.59,-10.32 -2.35,-0.07 -4.83,-0.11 -7.43,-0.11 -2.6,0 -5.33,0 -8.18,0 h -20.64 c -0.79,0 -1.27,-0.3 -1.44,-0.91 -0.18,-0.6 -0.27,-1.16 -0.27,-1.66 v -0.75 l 11.76,-30.91 -0.11,-0.43 c 0,-0.36 0.23,-0.66 0.7,-0.91 0.46,-0.25 1.51,-0.44 3.15,-0.59 9.84,-0.57 19.37,-1.12 28.61,-1.66 9.23,-0.54 18.36,-1.02 27.38,-1.44 9.02,-0.43 18.04,-0.86 27.06,-1.28 9.02,-0.43 18.3,-0.82 27.86,-1.18 0.86,0 1.76,0.11 2.73,0.32 0.96,0.21 1.44,1 1.44,2.35 0,0.14 -0.04,0.29 -0.11,0.43 -0.07,0.14 -0.11,0.29 -0.11,0.43 -1.14,2.92 -2.19,5.71 -3.15,8.34 -0.96,2.64 -1.91,5.24 -2.83,7.81 -0.93,2.57 -1.87,5.17 -2.83,7.81 -0.96,2.64 -2.02,5.42 -3.15,8.34 -0.07,0.07 -0.21,0.41 -0.43,1.02 -0.21,0.61 -0.53,1.28 -0.96,2.03 -0.43,0.75 -1,1.44 -1.71,2.09 -0.71,0.64 -1.6,1 -2.67,1.07 -0.36,-0.07 -0.71,-0.11 -1.07,-0.11 -0.36,0 -0.75,0 -1.18,0 h -28.55 c -0.36,3.64 -0.69,7.49 -1.02,11.55 -0.32,4.06 -0.7,8.02 -1.12,11.87 l -7.81,83.52 c -0.07,0.64 -0.2,1.28 -0.37,1.93 -0.18,0.64 -0.66,1.11 -1.44,1.39 L 1341,1184.8 c -0.79,0.28 -1.82,0.64 -3.1,1.07 -1.28,0.43 -2.53,0.64 -3.74,0.64 -1,0 -1.87,-0.25 -2.62,-0.75 -0.75,-0.5 -1.12,-1.43 -1.12,-2.78 v -0.43 z"
           class="st4"
           inkscape:connector-curvature="0"
           transform="translate(2.7559056e-5,3.6220474e-6)" />
        <path
           style="fill:#ffffff"
           id="path62"
           d="m 1415.36,1167.98 c 1.32,-2.65 2.7,-5.63 4.13,-8.94 1.42,-3.31 2.75,-6.9 3.97,-10.77 l 4.12,-10.08 c -1.83,-2.75 -3.69,-5.73 -5.58,-8.94 -1.89,-3.21 -3.59,-6.49 -5.12,-9.85 -1.53,-3.36 -2.78,-6.72 -3.74,-10.08 -0.97,-3.36 -1.45,-6.62 -1.45,-9.78 0,-0.2 0.79,-0.38 2.37,-0.54 1.58,-0.15 3.56,-0.28 5.96,-0.38 2.39,-0.1 4.99,-0.18 7.79,-0.23 2.8,-0.05 5.4,-0.1 7.79,-0.15 2.39,-0.05 5.17,-0.13 8.33,-0.23 2.34,-6.11 4.63,-11.92 6.88,-17.42 2.24,-5.5 4.48,-11.05 6.72,-16.65 2.24,-5.6 4.48,-11.33 6.72,-17.19 2.24,-5.86 4.48,-12.15 6.72,-18.87 4.28,-12.63 8.45,-23.73 12.53,-33.3 4.07,-9.57 7.89,-18.49 11.46,-26.73 0.41,-1.02 1.09,-1.96 2.06,-2.83 0.97,-0.86 2.01,-1.6 3.13,-2.22 1.12,-0.61 2.22,-1.12 3.29,-1.53 1.07,-0.41 1.91,-0.71 2.52,-0.92 0.41,-0.1 1.96,-0.56 4.66,-1.38 2.7,-0.81 5.78,-1.68 9.24,-2.6 3.46,-0.92 6.9,-1.73 10.31,-2.44 3.41,-0.71 6.13,-1.07 8.17,-1.07 h 2.75 c 1.63,0 3.18,0.38 4.66,1.15 1.47,0.76 2.47,2.27 2.98,4.51 4.89,12.53 10.11,26.2 15.66,41.02 5.55,14.82 10.97,31.14 16.27,48.96 2.85,9.57 5.65,18.64 8.4,27.19 2.75,8.55 5.5,16.91 8.25,25.05 2.75,8.15 5.52,16.3 8.33,24.44 2.8,8.15 5.68,16.55 8.63,25.21 0.92,3.67 1.86,6.57 2.83,8.71 0.97,2.14 1.86,3.82 2.67,5.04 0.81,1.22 1.47,2.12 1.99,2.67 0.51,0.56 0.76,1.15 0.76,1.76 0,0.61 -0.97,1.22 -2.9,1.83 l -32.85,10.69 c -2.44,0.92 -4.94,1.83 -7.49,2.75 -2.55,0.92 -4.94,1.73 -7.18,2.44 -2.24,0.71 -4.2,1.3 -5.88,1.76 -1.68,0.46 -2.88,0.69 -3.59,0.69 h -0.92 c -1.43,0 -2.44,-0.43 -3.05,-1.3 -0.61,-0.87 -1.02,-1.71 -1.22,-2.52 -1.02,-3.36 -2.04,-6.39 -3.05,-9.09 -1.02,-2.7 -2.01,-5.4 -2.98,-8.1 -0.97,-2.7 -1.94,-5.58 -2.9,-8.63 -0.97,-3.06 -1.91,-6.67 -2.83,-10.85 -0.21,-0.51 -0.76,-0.94 -1.68,-1.3 -0.92,-0.36 -2.01,-0.63 -3.29,-0.84 -1.27,-0.2 -2.62,-0.33 -4.05,-0.38 -1.43,-0.05 -2.75,-0.08 -3.97,-0.08 -3.87,0 -7,0.03 -9.4,0.08 -2.39,0.05 -4.51,0.1 -6.34,0.15 -1.83,0.05 -3.59,0.1 -5.27,0.15 -1.68,0.05 -3.74,0.08 -6.19,0.08 -2.96,0 -5.98,-0.02 -9.09,-0.08 -3.11,-0.05 -5.93,-0.13 -8.48,-0.23 l -8.71,-0.31 c -2.65,7.33 -5.3,14.21 -7.94,20.62 -2.65,6.42 -5.5,13.04 -8.55,19.86 -0.21,0.81 -0.69,1.47 -1.45,1.99 -0.76,0.51 -1.55,0.76 -2.37,0.76 -0.61,0 -0.97,-0.05 -1.07,-0.15 -9.88,-3.57 -18.18,-7.08 -24.9,-10.54 -6.73,-3.42 -12.58,-6.78 -17.57,-10.04 z m 102.96,-137.34 c -2.44,9.07 -4.86,17.29 -7.26,24.67 -2.39,7.39 -4.58,13.93 -6.57,19.63 -1.99,5.71 -3.69,10.52 -5.12,14.44 -1.43,3.92 -2.44,6.95 -3.06,9.09 v 1.38 c 0,0.61 -0.05,1.02 -0.15,1.22 h 36.67 c -1.12,-4.99 -2.32,-10.03 -3.59,-15.12 -1.28,-5.09 -2.52,-10.44 -3.74,-16.04 -1.22,-5.6 -2.44,-11.61 -3.67,-18.03 -1.21,-6.42 -2.39,-13.5 -3.51,-21.24 z"
           class="st4"
           inkscape:connector-curvature="0"
           transform="translate(2.7559056e-5,3.6220474e-6)" />
        <path
           style="fill:#ffffff"
           id="path64"
           d="m 1668.74,915.45 c -4.48,6.21 -8.23,11.33 -11.23,15.35 -3,4.02 -5.48,7.21 -7.41,9.55 -1.94,2.34 -3.46,3.97 -4.58,4.89 -1.12,0.92 -2.04,1.38 -2.75,1.38 -0.61,0 -1.12,-0.2 -1.53,-0.61 -2.14,-1.42 -4.08,-2.67 -5.81,-3.74 -1.73,-1.07 -3.36,-2.04 -4.89,-2.9 -1.53,-0.86 -3.08,-1.7 -4.66,-2.52 -1.58,-0.81 -3.34,-1.68 -5.27,-2.6 -1.43,-0.81 -2.14,-1.88 -2.14,-3.21 0.1,-0.81 0.28,-1.78 0.54,-2.9 0.25,-1.12 0.69,-2.54 1.3,-4.28 l 28.26,-82.04 c 0.51,-1.43 1.02,-2.39 1.53,-2.9 0.51,-0.51 1.07,-0.76 1.68,-0.76 0.51,0 1.02,0.13 1.53,0.38 0.51,0.26 1.02,0.54 1.53,0.84 7.94,5.4 15.86,10.01 23.76,13.83 7.89,3.82 15.71,7.77 23.45,11.84 1.83,1.12 2.75,2.5 2.75,4.13 0,1.63 -0.87,3.72 -2.6,6.26 -3.97,4.58 -7.26,8.38 -9.85,11.38 -2.6,3.01 -5.04,5.88 -7.33,8.63 -2.29,2.75 -4.66,5.65 -7.1,8.71 -2.46,3.04 -5.51,6.81 -9.18,11.29 z m -46.29,268.57 7.64,-104.5 c 2.54,-35.04 4.43,-60.75 5.65,-77.15 1.22,-16.4 1.83,-24.54 1.83,-24.44 0.1,-1.83 0.2,-3.36 0.31,-4.58 0.1,-1.22 0.31,-2.24 0.61,-3.06 0.31,-0.81 0.71,-1.42 1.22,-1.83 0.51,-0.41 1.27,-0.71 2.29,-0.92 l 52.86,-12.68 c 1.32,-0.41 2.7,-0.61 4.13,-0.61 1.42,0 2.39,0.43 2.9,1.3 0.51,0.87 0.76,2.62 0.76,5.27 -0.71,6.32 -1.28,12.22 -1.68,17.72 -0.41,5.5 -0.74,10.75 -0.99,15.74 -0.26,4.99 -0.48,9.8 -0.69,14.44 -0.21,4.64 -0.46,9.24 -0.76,13.83 -0.61,4.99 -1.15,9.98 -1.6,14.97 -0.46,4.99 -0.89,10.16 -1.3,15.51 -0.41,5.35 -0.84,11 -1.3,16.96 -0.46,5.96 -0.99,12.45 -1.6,19.48 l -6.72,80.51 c -0.1,0.92 -0.28,1.81 -0.54,2.67 -0.25,0.87 -0.94,1.55 -2.06,2.06 -0.1,0 -0.71,0.21 -1.83,0.61 -1.12,0.41 -2.6,0.94 -4.43,1.6 -1.83,0.66 -3.97,1.35 -6.42,2.06 -2.44,0.71 -5.04,1.38 -7.79,1.99 -4.58,1.02 -8.58,2.04 -11.99,3.06 -3.41,1.02 -6.44,1.96 -9.09,2.83 -2.65,0.86 -5.09,1.55 -7.33,2.06 -2.24,0.51 -4.48,0.76 -6.72,0.76 -1.53,0 -2.8,-0.41 -3.82,-1.22 -1.03,-0.83 -1.54,-2.3 -1.54,-4.44 z"
           class="st4"
           inkscape:connector-curvature="0"
           transform="translate(2.7559056e-5,3.6220474e-6)" />
        <path
           style="fill:#ffffff"
           id="path68"
           d="m 349.5,903.26 c 3.6,-25.08 11.8,-49.15 25.4,-71.32 8.86,-14.44 19.21,-27.63 31.73,-39.12 13.81,-12.68 28.97,-23.33 46.03,-31.11 22.66,-10.34 46.41,-15.74 71.41,-15.7 32.25,0.05 61.96,8.77 89.44,25.46 14.79,8.98 27.83,20.02 39.47,32.83 14.66,16.14 25.92,34.38 34.07,54.49 11.18,27.59 15.54,56.3 13.44,86.05 -1.85,26.29 -9.18,50.96 -21.25,74.26 -6.12,11.82 -13.67,22.72 -22.29,32.89 -9.64,11.36 -20.45,21.47 -32.61,30.03 -9.47,6.67 -19.31,12.81 -30.2,17.01 -1.46,0.56 -2.6,1.43 -3.37,2.75 -4.8,8.25 -9.66,16.46 -14.29,24.8 -1.02,1.83 -2.27,2.63 -4.13,2.89 -21.22,2.96 -42.45,5.9 -63.67,8.87 -18.56,2.59 -37.11,5.21 -55.66,7.83 -0.29,0.04 -0.58,0.17 -0.87,0.2 -2.02,0.17 -3.41,-0.39 -3.9,-2.67 -0.51,-2.32 1.12,-2.9 2.57,-3.2 3.86,-0.8 7.78,-1.38 11.69,-1.92 16.63,-2.32 33.26,-4.58 49.89,-6.88 18.78,-2.6 37.56,-5.24 56.34,-7.79 1.79,-0.24 2.89,-0.79 3.84,-2.51 3.6,-6.52 7.72,-12.76 11.14,-19.38 2.41,-4.67 6.25,-7.38 10.64,-9.52 10.5,-5.12 20.41,-11.09 29.84,-18.04 12.45,-9.18 23.26,-19.94 32.76,-32.04 12.94,-16.49 22.58,-34.81 28.95,-54.76 4.74,-14.85 7.8,-30.04 8.63,-45.71 0.79,-15.04 -0.01,-29.94 -2.66,-44.7 -3.59,-20.05 -10.38,-39.01 -20.35,-56.82 -5.24,-9.37 -11.27,-18.21 -18.08,-26.47 -8.22,-9.97 -17.44,-18.96 -27.74,-26.81 -9.19,-7.01 -18.86,-13.29 -29.34,-18.18 -10.17,-4.75 -20.65,-8.57 -31.54,-11.49 -25.12,-6.73 -50.31,-6.86 -75.58,-1.56 -17.4,3.65 -33.8,10.06 -49.04,19.32 -5.86,3.56 -11.67,7.16 -17.07,11.4 -11.67,9.16 -22.15,19.5 -31.21,31.3 -10.2,13.28 -18.57,27.57 -24.74,43.13 -7.62,19.22 -11.98,39.12 -13.06,59.8 -1.25,24.01 2.21,47.32 9.97,69.99 4.67,13.65 10.98,26.57 18.96,38.64 4.62,6.99 9.91,13.43 15.04,20.03 3.55,4.57 6.34,9.85 8.84,15.1 2.33,4.9 5.72,9.04 8.43,13.65 6.33,10.75 12.79,21.43 19.22,32.13 3.11,5.18 6.28,10.33 9.43,15.48 0.73,1.19 1.63,2.38 1.24,3.84 -0.3,1.11 -1.28,1.77 -2.41,2.03 -1.46,0.34 -2.59,-0.37 -3.29,-1.52 -4.31,-7.05 -8.56,-14.14 -12.81,-21.23 -5.16,-8.59 -10.31,-17.2 -15.47,-25.79 -4.2,-7 -8.35,-14.04 -12.62,-21 -2.76,-4.51 -5.47,-9.01 -8.9,-13.16 -11.19,-13.52 -20.22,-28.49 -27,-44.67 -8,-19.09 -13.04,-38.97 -14.6,-59.69 -1.03,-13.67 -0.46,-27.27 1.34,-41.44 z"
           class="st4"
           inkscape:connector-curvature="0" />
        <path
           style="fill:#ffffff"
           id="path70"
           d="m 560.19,1212.79 c -0.66,1.53 -1.71,2.29 -3.36,2.56 -10.82,1.76 -21.61,3.62 -32.42,5.41 -16.12,2.67 -32.24,5.31 -48.36,7.97 -3.64,0.6 -7.29,1.14 -10.89,1.9 -2.38,0.51 -3.96,-0.05 -4.48,-2.5 -0.56,-2.66 1.41,-3.23 3.33,-3.56 7.67,-1.34 15.36,-2.63 23.05,-3.9 11.19,-1.85 22.38,-3.66 33.57,-5.51 11.48,-1.9 22.95,-3.83 34.44,-5.72 2.94,-0.48 5.38,1.19 5.12,3.35 z"
           class="st4"
           inkscape:connector-curvature="0" />
        <path
           style="fill:#ffffff"
           id="path72"
           d="m 477.69,1021.92 c -1.17,-0.43 -1.75,-1.23 -2.34,-2.05 -9.64,-13.19 -19.45,-26.25 -28.86,-39.59 -4.02,-5.7 -8.32,-11.18 -12.39,-16.84 -7.08,-9.86 -14.25,-19.67 -21.39,-29.49 -1.26,-1.73 -1.53,-2.7 0.63,-4.52 7.11,-6.01 13.77,-12.54 20.63,-18.85 6.35,-5.84 12.75,-11.63 19.11,-17.45 7.54,-6.89 15.06,-13.79 22.6,-20.68 6.22,-5.68 12.46,-11.35 18.68,-17.04 7.32,-6.69 14.61,-13.41 21.92,-20.1 6.29,-5.76 12.6,-11.5 18.9,-17.26 4.1,-3.74 8.25,-7.43 12.27,-11.25 2.63,-2.5 3.85,-2.67 5.82,0.32 4.59,6.95 8.98,14.03 13.44,21.07 4.08,6.45 8.15,12.91 12.22,19.36 5.97,9.48 11.92,18.97 17.93,28.43 4.89,7.71 9.87,15.35 14.76,23.06 5.05,7.95 10,15.96 15.05,23.91 4.94,7.78 9.96,15.52 14.94,23.28 3,4.68 5.97,9.37 8.98,14.04 1.12,1.75 0.47,2.85 -1.35,3.17 -10.23,1.85 -19.68,6.15 -29.49,9.31 -22.04,7.09 -43.97,14.51 -65.95,21.77 -19.71,6.52 -39.46,12.94 -59.14,19.57 -5.49,1.85 -11.04,3.71 -15.82,7.21 -0.36,0.31 -0.83,0.47 -1.15,0.62 z"
           class="st4"
           inkscape:connector-curvature="0" />
        <path
           style="fill:#ffffff"
           id="path74"
           d="m 524.83,1088.29 c -3.41,-2.13 -5.13,-5.72 -7.38,-8.8 -3.98,-5.45 -7.54,-11.2 -11.38,-16.76 -8.14,-11.78 -16.31,-23.54 -24.54,-35.26 -1.25,-1.78 -0.7,-2.8 0.98,-3.45 2.38,-0.92 4.86,-1.57 7.25,-2.48 1.6,-0.61 2.16,0.44 2.82,1.44 4.74,7.15 9.61,14.23 14.16,21.49 2.7,4.3 5.48,8.56 8.26,12.8 5.12,7.8 10.32,15.57 16.14,22.89 2.69,3.38 1.71,7.08 -2.21,9.18 -1.25,-0.76 -2.87,-0.17 -4.1,-1.05 z"
           class="st4"
           inkscape:connector-curvature="0" />
        <path
           style="fill:#ffffff"
           id="path76"
           d="m 601.42,862.44 c 12.53,1.19 20.71,13.77 18.68,24.46 -0.45,2.4 -1.12,4.77 -2.5,6.9 -1.05,1.63 -1.99,1.53 -2.9,0.12 -4.09,-6.31 -8.12,-12.65 -12.15,-18.99 -2.22,-3.5 -4.26,-7.12 -6.64,-10.51 -1.33,-1.89 -0.21,-2.34 1.14,-2.4 1.51,-0.05 3.11,-0.27 4.37,0.42 z"
           class="st4"
           inkscape:connector-curvature="0" />
        <path
           style="fill:#ffffff"
           id="path78"
           d="m 528.04,1056.03 c -0.28,0.64 -0.58,1.84 -1.24,2.78 -1.42,2.02 -2.6,1.84 -3.89,-0.32 -1.27,-2.11 -2.69,-4.14 -3.93,-6.26 -0.47,-0.8 -2.05,-1.44 -0.83,-2.68 1.28,-1.3 2.87,-2.32 4.75,-1.93 2.82,0.59 5.54,4.9 5.14,8.41 z"
           class="st4"
           inkscape:connector-curvature="0" />
        <path
           style="fill:#ffffff"
           id="path80"
           d="m 524.83,1088.29 c 1.36,0.38 2.94,-0.08 4.11,1.06 -1.38,-0.31 -2.99,0.27 -4.11,-1.06 z"
           class="st4"
           inkscape:connector-curvature="0" />
        <path
           style="fill:#ffffff"
           id="path82"
           d="m 593.13,1139.44 c 11.09,1.98 19.98,9.27 24.35,21.44 3.25,9.06 6.15,18.3 7.23,27.96 0.16,1.39 0.42,2.17 2.26,2.31 3.87,0.29 6.89,2.48 7.99,6.21 1.16,3.96 1.04,8.3 -1.99,11.34 -1.72,1.72 -4.66,2.36 -7.3,2.81 -7.25,1.25 -14.52,2.42 -21.74,3.79 -6.42,1.22 -12.76,2.82 -19.18,4 -4.69,0.86 -9.25,1.14 -13.42,-2.38 -5.14,-4.35 -5.01,-10.74 -0.98,-15.41 1.77,-2.06 2.2,-3.91 1.55,-6.39 -0.9,-3.43 -1.65,-6.9 -2.36,-10.37 -0.37,-1.79 -1.1,-2.38 -3.04,-2.01 -9.96,1.86 -19.92,3.81 -29.94,5.24 -7.74,1.11 -15.55,1.56 -23.24,3.18 -12.73,2.67 -25.51,5.12 -38.48,6.33 -4.56,0.43 -6.74,-2.73 -4.97,-7.43 0.94,-2.49 0.91,-4.9 0.71,-7.45 -0.51,-6.45 -4.72,-10 -9.69,-13.18 -3.3,-2.11 -6.88,-3.93 -9.34,-7.2 -0.62,-0.83 -1.44,-1.67 -0.97,-2.61 0.54,-1.09 1.23,-2.2 2.79,-2.41 26.81,-3.64 53.6,-7.39 80.42,-10.96 9.85,-1.31 19.57,-3.25 29.37,-4.84 9.33,-1.54 18.65,-3.6 29.97,-1.97 z"
           class="st4"
           inkscape:connector-curvature="0" />
        <path
           style="fill:#ffffff"
           id="path84"
           d="m 503.37,1276.18 c -9.98,-1.42 -18.67,-5.71 -26.61,-11.73 -2.72,-2.06 -4.92,-4.46 -6.72,-7.39 -1.3,-2.11 -1.51,-2.78 1.3,-3.29 11.94,-2.19 23.83,-4.61 35.74,-6.92 16.09,-3.12 32.2,-6.19 48.28,-9.38 2.19,-0.44 2.59,-0.46 2.04,2.08 -1.21,5.6 -3.35,10.85 -5.81,15.9 -3.6,7.4 -9.05,12.9 -17.13,15.91 -9.85,3.67 -21.79,5.95 -31.09,4.82 z"
           class="st4"
           inkscape:connector-curvature="0" />
        <g
           style="fill:#ffffff"
           id="g92">
          <g
             style="fill:#ffffff"
             id="g90">
            <path
               style="fill:#ffffff"
               id="path86"
               d="m 603.28,1219.57 c 0.02,0 0.04,0 0.05,0 0,0 0,0 -0.01,-0.01 0,0.01 -0.04,0.01 -0.04,0.01 z"
               class="st4"
               inkscape:connector-curvature="0" />
            <path
               style="fill:#ffffff"
               id="path88"
               d="m 647.78,1282.51 c -0.2,-9.4 -3.67,-17.92 -9.65,-25.3 -2.82,-3.47 -5.69,-6.9 -8.45,-10.43 -7.24,-9.26 -14.71,-18.3 -23.43,-26.25 -0.9,-0.82 -1.8,-1.1 -2.92,-0.98 0.09,0.08 0.2,0.16 0.25,0.27 0.02,0.04 -0.11,0.21 -0.18,0.21 -1.54,0.05 -2.03,1.18 -2.69,2.32 -5.41,9.38 -10.09,19.16 -15.97,28.28 -5.21,8.07 -8.5,16.87 -9.16,26.58 -0.27,3.97 -0.01,7.97 1.19,11.58 2.52,7.58 6.48,14.17 13.06,19.41 8.25,6.56 16.71,11.32 27.66,10.42 8,-0.66 14.95,-2.86 20.52,-9.21 6.86,-7.79 9.99,-16.85 9.77,-26.9 z m -5.37,6.21 c -0.85,5.66 -3.44,10.18 -6.2,14.57 -0.61,0.98 -8.16,8.65 -12.73,9.13 -4.41,0.47 -9,0.21 -13.42,-0.09 -1.2,-0.08 -2.32,-0.2 -3.48,-0.53 -8.92,-2.51 -16.09,-7.5 -20.28,-15.78 -4.24,-8.39 -6.53,-17.07 -3.86,-26.84 2.11,-7.74 6.76,-13.95 10.2,-20.86 3.47,-6.98 8.04,-13.41 11.46,-20.44 0.76,-1.57 1.11,-1.61 2.42,-0.4 5.31,4.9 9.9,10.47 14.19,16.21 2.98,3.99 6.02,7.95 9.17,11.78 2.87,3.48 5.84,6.78 8.21,10.7 4.36,7.19 4.88,14.93 4.32,22.55 z"
               class="st4"
               inkscape:connector-curvature="0" />
          </g>
        </g>
        <path
           style="fill:#ffffff"
           id="path94"
           d="m 441,1035 c 19,0 25.21,-8.35 31.62,-10.79 L 406.87,933.58 C 398.83,943.54 383,955 383,977 c 0,32.03 25.97,58 58,58 z"
           class="st4"
           inkscape:connector-curvature="0" />
      </g>
    </g>
  </g>
</svg>
